<svg width="79" height="79" viewBox="0 0 79 79" fill="none" xmlns="http://www.w3.org/2000/svg">
<rect width="79" height="79" rx="5" fill="#FAFAFA"/>
<rect width="79" height="79" rx="5" fill="#333333"/>
<path fill-rule="evenodd" clip-rule="evenodd" d="M19.826 15.3791H19.326C18.7738 15.3791 18.326 15.8268 18.326 16.3791V16.8791V34.3412C18.326 34.7106 18.1225 35.0499 17.7965 35.2237L15.1734 36.6222L14.9087 36.7634C14.5827 36.9371 14.3792 37.2764 14.3792 37.6458V37.9458V61.2677V61.7677C14.3792 62.32 14.8269 62.7677 15.3792 62.7677H15.8792H34.3361H34.8361C35.3884 62.7677 35.8361 62.32 35.8361 61.7677V61.2677V51C35.8361 50.4477 36.2838 50 36.8361 50H42.5813C43.1336 50 43.5813 50.4477 43.5813 51V61.2677V61.7677C43.5813 62.32 44.029 62.7677 44.5813 62.7677H45.0813H62.8546H63.3546C63.9069 62.7677 64.3546 62.32 64.3546 61.7677V61.2677V24.9527V24.1001C64.3546 23.3363 63.533 22.8545 62.8664 23.2274L62.1223 23.6436L46.9882 32.1096C46.3216 32.4825 45.5 32.0007 45.5 31.2369V22.9527V22.1195C45.5 21.3646 44.6956 20.8819 44.0295 21.2371L43.2943 21.6291L33.1977 27.0122C32.5316 27.3674 31.7273 26.8847 31.7273 26.1298V16.8791V16.3791C31.7273 15.8268 31.2795 15.3791 30.7273 15.3791H30.2273H19.826ZM28.1977 29.6781C28.5237 29.5043 28.7273 29.165 28.7273 28.7957V19.3791C28.7273 18.8268 28.2795 18.3791 27.7273 18.3791H22.326C21.7738 18.3791 21.326 18.8268 21.326 19.3791V31.6754C21.326 32.4303 22.1304 32.913 22.7965 32.5578L28.1977 29.6781ZM18.3792 59.7677C17.8269 59.7677 17.3792 59.32 17.3792 58.7677V39.446C17.3792 39.0767 17.5828 38.7374 17.9087 38.5636L41.0295 26.2363C41.6956 25.8812 42.5 26.3639 42.5 27.1188V35.5V36.3526C42.5 37.1164 43.3216 37.5982 43.9882 37.2253L44.7323 36.8091L59.8664 28.3431C60.533 27.9702 61.3546 28.452 61.3546 29.2158V58.7677C61.3546 59.32 60.9069 59.7677 60.3546 59.7677H47.5813C47.029 59.7677 46.5813 59.32 46.5813 58.7677V48.5V48C46.5813 47.4477 46.1336 47 45.5813 47H45.0813H34.3361H33.8361C33.2838 47 32.8361 47.4477 32.8361 48V48.5V58.7677C32.8361 59.32 32.3884 59.7677 31.8361 59.7677H18.3792Z" fill="white"/>
</svg>
