<svg width="102" height="151" viewBox="0 0 102 151" fill="none" xmlns="http://www.w3.org/2000/svg">
<rect x="41.5" y="59.5" width="36" height="37" rx="3.5" fill="#EBD946" stroke="#333333" stroke-width="3"/>
<rect x="27.5" y="66.5" width="23" height="34" rx="11.5" fill="#F2B8B8" stroke="#333333" stroke-width="3"/>
<path d="M14.4509 43.7254H29.5491C30.5021 43.7254 31.2746 44.4979 31.2746 45.4509V90.5491C31.2746 91.5021 30.5021 92.2746 29.5491 92.2746H14.4509C13.4979 92.2746 12.7254 91.5021 12.7254 90.5491L12.7254 45.4509C12.7254 44.4979 13.4979 43.7254 14.4509 43.7254Z" fill="#EBD946" stroke="#333333" stroke-width="3.45085"/>
<rect x="13" y="76" width="18" height="10" fill="#D57A7A"/>
<rect x="13" y="59" width="17" height="10" fill="#D57A7A"/>
<path d="M14.4509 43.7254H29.5491C30.5021 43.7254 31.2746 44.4979 31.2746 45.4509V90.5491C31.2746 91.5021 30.5021 92.2746 29.5491 92.2746H14.4509C13.4979 92.2746 12.7254 91.5021 12.7254 90.5491L12.7254 45.4509C12.7254 44.4979 13.4979 43.7254 14.4509 43.7254Z" stroke="#333333" stroke-width="3.45085"/>
<mask id="path-7-inside-1_22_3" fill="white">
<path fill-rule="evenodd" clip-rule="evenodd" d="M101.28 76.5582C101.28 71.9112 95.4946 69.7775 92.4775 73.3119L82.7576 84.698H81.2803V76.5582C81.2803 71.9112 75.4946 69.7775 72.4775 73.3119L62.7576 84.698H61.2803V76.5582C61.2803 71.9112 55.4946 69.7775 52.4775 73.3119L42.7576 84.698H6C2.68629 84.698 0 87.3843 0 90.698V144.346C0 147.66 2.68629 150.346 6 150.346H95.225C98.5387 150.346 101.225 147.66 101.225 144.346V99.7461C101.261 99.5027 101.28 99.2535 101.28 99V76.5582Z"/>
</mask>
<path fill-rule="evenodd" clip-rule="evenodd" d="M101.28 76.5582C101.28 71.9112 95.4946 69.7775 92.4775 73.3119L82.7576 84.698H81.2803V76.5582C81.2803 71.9112 75.4946 69.7775 72.4775 73.3119L62.7576 84.698H61.2803V76.5582C61.2803 71.9112 55.4946 69.7775 52.4775 73.3119L42.7576 84.698H6C2.68629 84.698 0 87.3843 0 90.698V144.346C0 147.66 2.68629 150.346 6 150.346H95.225C98.5387 150.346 101.225 147.66 101.225 144.346V99.7461C101.261 99.5027 101.28 99.2535 101.28 99V76.5582Z" fill="white"/>
<path d="M92.4775 73.3119L95.1021 75.5524L95.1021 75.5524L92.4775 73.3119ZM82.7576 84.698V88.1489H84.349L85.3822 86.9385L82.7576 84.698ZM81.2803 84.698H77.8295V88.1489H81.2803V84.698ZM72.4775 73.3119L75.1021 75.5524L75.1021 75.5524L72.4775 73.3119ZM62.7576 84.698V88.1489H64.349L65.3822 86.9385L62.7576 84.698ZM61.2803 84.698H57.8295V88.1489H61.2803V84.698ZM52.4775 73.3119L49.8529 71.0714L49.8529 71.0714L52.4775 73.3119ZM42.7576 84.698V88.1489H44.349L45.3822 86.9385L42.7576 84.698ZM101.225 99.7461L97.8122 99.2355L97.7742 99.4894V99.7461H101.225ZM95.1021 75.5524C96.0369 74.4573 97.8295 75.1184 97.8295 76.5582H104.731C104.731 68.704 94.9524 65.0977 89.8529 71.0714L95.1021 75.5524ZM85.3822 86.9385L95.1021 75.5524L89.8529 71.0714L80.133 82.4575L85.3822 86.9385ZM81.2803 88.1489H82.7576V81.2472H81.2803V88.1489ZM77.8295 76.5582V84.698H84.7312V76.5582H77.8295ZM75.1021 75.5524C76.0369 74.4573 77.8295 75.1184 77.8295 76.5582H84.7312C84.7312 68.704 74.9524 65.0977 69.8529 71.0714L75.1021 75.5524ZM65.3822 86.9385L75.1021 75.5524L69.8529 71.0714L60.133 82.4575L65.3822 86.9385ZM61.2803 88.1489H62.7576V81.2472H61.2803V88.1489ZM57.8295 76.5582V84.698H64.7312V76.5582H57.8295ZM55.1021 75.5524C56.0369 74.4573 57.8295 75.1184 57.8295 76.5582H64.7312C64.7312 68.704 54.9524 65.0977 49.8529 71.0714L55.1021 75.5524ZM45.3822 86.9385L55.1021 75.5524L49.8529 71.0714L40.133 82.4575L45.3822 86.9385ZM6 88.1489H42.7576V81.2472H6V88.1489ZM3.45085 90.698C3.45085 89.2902 4.59214 88.1489 6 88.1489V81.2472C0.780438 81.2472 -3.45085 85.4785 -3.45085 90.698H3.45085ZM3.45085 144.346V90.698H-3.45085V144.346H3.45085ZM6 146.895C4.59214 146.895 3.45085 145.754 3.45085 144.346H-3.45085C-3.45085 149.565 0.780433 153.797 6 153.797V146.895ZM95.225 146.895H6V153.797H95.225V146.895ZM97.7742 144.346C97.7742 145.754 96.6329 146.895 95.225 146.895V153.797C100.445 153.797 104.676 149.565 104.676 144.346H97.7742ZM97.7742 99.7461V144.346H104.676V99.7461H97.7742ZM97.8295 99C97.8295 99.082 97.8234 99.1605 97.8122 99.2355L104.638 100.257C104.7 99.8449 104.731 99.4251 104.731 99H97.8295ZM97.8295 76.5582V99H104.731V76.5582H97.8295Z" fill="#333333" mask="url(#path-7-inside-1_22_3)"/>
<path d="M57.5142 125.923C57.5142 129.099 54.9392 131.674 51.7628 131.674C48.5864 131.674 46.0114 129.099 46.0114 125.923" stroke="#333333" stroke-width="3.45085" stroke-linecap="round"/>
<circle cx="74.1933" cy="122.926" r="8.62713" fill="#DC4545" fill-opacity="0.2"/>
<circle cx="29.3323" cy="122.926" r="8.62713" fill="#DC4545" fill-opacity="0.2"/>
<path d="M63.2656 107.866C63.2656 106.596 64.2956 105.566 65.5662 105.566V105.566C66.8368 105.566 67.8668 106.596 67.8668 107.866V117.068C67.8668 118.339 66.8368 119.369 65.5662 119.369V119.369C64.2956 119.369 63.2656 118.339 63.2656 117.068V107.866Z" fill="#333333"/>
<path d="M34.5085 107.866C34.5085 106.596 35.5385 105.566 36.8091 105.566V105.566C38.0797 105.566 39.1097 106.596 39.1097 107.866V117.068C39.1097 118.339 38.0797 119.369 36.8091 119.369V119.369C35.5385 119.369 34.5085 118.339 34.5085 117.068V107.866Z" fill="#333333"/>
<path fill-rule="evenodd" clip-rule="evenodd" d="M45.2289 22.8205C50.7298 21.9713 54.9414 17.2163 54.9414 11.4777C54.9414 5.13873 49.8026 0 43.4637 0C38.5516 0 34.3602 3.08569 32.7222 7.42443C31.6314 7.18781 30.4989 7.06319 29.3373 7.06319C20.5603 7.06319 13.4451 14.1784 13.4451 22.9554C13.4451 31.7324 20.5603 38.8475 29.3373 38.8475C38.1143 38.8475 45.2295 31.7324 45.2295 22.9554C45.2295 22.9104 45.2293 22.8654 45.2289 22.8205Z" fill="#EEEEEE"/>
</svg>
