<svg width="50" height="48" viewBox="0 0 50 48" fill="none" xmlns="http://www.w3.org/2000/svg">
<path fill-rule="evenodd" clip-rule="evenodd" d="M6.4469 0H4.9469V1.5V19.2677L0.787362 21.5135L0 21.9386V22.8334V46.4505V47.9505H1.5H19.9569H21.4569V46.4505V37.0464H29.2021V46.4505V47.9505H30.7021H48.4755H49.9755V46.4505V9.67576V7.22089L47.791 8.34101L31.1208 16.889V7.65044V5.1359L28.9082 6.33054L17.3481 12.572V1.5V0H15.8481H6.4469ZM14.3481 14.1918V3H7.9469V17.6479L14.3481 14.1918ZM3 44.9505V23.7282L28.1208 10.165V19.3439V21.7988L30.3053 20.6787L46.9755 12.1306V44.9505H32.2021V35.5464V34.0464H30.7021H19.9569H18.4569V35.5464V44.9505H3Z" fill="#ffffff"/>
</svg>
