<svg width="70" height="70" viewBox="0 0 70 70" fill="none" xmlns="http://www.w3.org/2000/svg">
<rect width="70" height="70" rx="10" fill="white"/>
<path fill-rule="evenodd" clip-rule="evenodd" d="M16.4469 11H14.9469V12.5V30.2677L10.7874 32.5135L10 32.9386V33.8334V57.4505V58.9505H11.5H29.9569H31.4569V57.4505V48.0464H39.2021V57.4505V58.9505H40.7021H58.4755H59.9755V57.4505V20.6758V18.2209L57.791 19.341L41.1208 27.889V18.6504V16.1359L38.9082 17.3305L27.3481 23.572V12.5V11H25.8481H16.4469ZM24.3481 25.1918V14H17.9469V28.6479L24.3481 25.1918ZM13 55.9505V34.7282L38.1208 21.165V30.3439V32.7988L40.3053 31.6787L56.9755 23.1306V55.9505H42.2021V46.5464V45.0464H40.7021H29.9569H28.4569V46.5464V55.9505H13Z" fill="#202328"/>
</svg>
